<svg xmlns="http://www.w3.org/2000/svg" version="1.1" xmlns:xlink="http://www.w3.org/1999/xlink" width="1500" height="161" viewBox="0 0 1500 161"><svg xml:space="preserve" width="1500" height="161" data-version="2" data-id="lg_XpJnFyX3dGRXnBI6J1" viewBox="0 0 567 161" x="0" y="0"><rect width="100%" height="100%" fill="transparent"></rect><path fill="#39cccc" d="M220.31 126.94h-11.18v-91h19.11l20.54 74.1h1.43l20.54-74.1h19.11v91h-11.31l.52-77.22h-1.82l-21.32 77.22h-12.87l-21.45-77.22h-1.69z" paint-order="stroke"></path><rect width="80.73" height="91" x="-40.37" y="-45.5" fill="none" rx="0" ry="0" transform="translate(250 81.94)"></rect><path fill="#39cccc" d="M296.49 81.44q0-16.64 5.33-26.98 5.33-10.33 13.98-15.21 8.64-4.87 18.78-4.87t18.79 4.87q8.64 4.88 13.97 15.21 5.33 10.34 5.33 26.98 0 16.51-5.33 26.91-5.33 10.4-13.97 15.27-8.65 4.88-18.79 4.88-10.14 0-18.78-4.88-8.65-4.87-13.98-15.27-5.33-10.4-5.33-26.91m11.83 0q0 12.09 3.45 20.15 3.44 8.06 9.42 12.02 5.98 3.97 13.39 3.97 7.28 0 13.26-3.97 5.98-3.96 9.56-12.02 3.57-8.06 3.57-20.15 0-12.22-3.64-20.22-3.64-7.99-9.62-11.96-5.98-3.96-13.13-3.96-7.41 0-13.39 4.03t-9.42 12.02q-3.45 8-3.45 20.09" paint-order="stroke"></path><rect width="76.18" height="94.12" x="-38.09" y="-47.06" fill="none" rx="0" ry="0" transform="translate(335.08 81.94)"></rect><path fill="#39cccc" d="M373.32 38.28v-2.34h11.7l18.72 80.08h8.58l18.72-80.08h11.83v2.34l-22.1 88.53-25.48.13z" paint-order="stroke"></path><rect width="69.55" height="91" x="-34.77" y="-45.5" fill="none" rx="0" ry="0" transform="translate(408.6 81.94)"></rect><path fill="#39cccc" d="M506.18 97.04v-61.1h-11.57v60.19q0 6.89-2.4 11.57-2.41 4.68-6.57 7.15-4.16 2.47-9.62 2.47-5.46 0-9.75-2.47t-6.69-7.15q-2.41-4.68-2.41-11.57V35.94H445.6v61.1q0 9.1 2.73 15.14 2.73 6.05 7.22 9.62 4.48 3.58 9.88 5.07 5.39 1.5 10.59 1.5t10.47-1.5q5.26-1.49 9.75-5.07 4.48-3.57 7.21-9.62 2.73-6.04 2.73-15.14" paint-order="stroke"></path><rect width="60.58" height="92.43" x="-30.29" y="-46.22" fill="none" rx="0" ry="0" transform="translate(476.39 82.66)"></rect><path fill="#39cccc" d="M515.02 35.94h45.5v10.4h-34.06v30.94q4.29-1.82 9.69-2.8 5.39-.97 10.98-1.23 5.59-.26 10.14.52v9.88l-1.04.78q-3.51-1.04-8.77-1.04-5.27 0-10.86.91t-10.14 2.99v29.25h34.06v10.4h-45.5z" paint-order="stroke"></path><rect width="45.5" height="91" x="-22.75" y="-45.5" fill="none" rx="0" ry="0" transform="translate(538.27 81.94)"></rect><circle r="21.7" fill="#ec0000" transform="translate(55 110.03)scale(2.2819)"></circle><circle r="21.7" fill="#07c100" transform="translate(128.04 110.03)scale(2.2819)"></circle><circle r="21.7" fill="#286cff" transform="translate(92.2 50.97)scale(2.2819)"></circle></svg></svg>